<svg id="SvgjsSvg1001" width="288" height="288" xmlns="http://www.w3.org/2000/svg" version="1.1" xmlns:xlink="http://www.w3.org/1999/xlink" xmlns:svgjs="http://svgjs.com/svgjs"><defs id="SvgjsDefs1002"></defs><g id="SvgjsG1008" transform="matrix(0.9167,0,0,0.9167,11.995200000000011,11.984253656005876)"><svg xmlns="http://www.w3.org/2000/svg" width="288" height="288" fill="none" viewBox="0 0 572 112"><path fill="#121212" d="M96.4488 1.62402H55.8685L0 109.855H33.7362L44.0359 87.9216H73.5232L75.4191 109.801H107.69L96.4488 1.62402zM54.9003 63.3322C61.3007 50.0247 66.5447 38.8636 70.6323 29.2452 71.0626 38.6355 71.8828 50.8833 72.945 63.3322H54.9003zM202.392 1.62402H111.969L106.607 26.2134H135.74L117.993 109.855H150.38L168.127 26.2134H197.03L202.392 1.62402zM287.501 13.5213C279.422 4.68047 267.183 0 252.197 0 212.046 0 191.027 33.83 191.027 67.2467 191.027 94.9428 208.074 111.478 236.632 111.478 256.829 111.478 273.309 104.237 284.297 90.5557 293.601 78.9679 298.717 63.0596 298.717 45.7512 298.717 32.6699 294.826 21.5221 287.501 13.5213zM239.877 87.4887C226.937 87.4887 224.231 76.821 224.231 67.7801 224.304 57.8339 226.579 48.0247 230.896 39.0439 234.383 32.1765 240.671 23.989 250.756 23.989 260.841 23.989 266.052 30.6564 266.052 43.991 266.052 60.7794 258.943 87.4887 239.877 87.4887zM432.923 1.69106H386.576L386.226 2.52226C383.927 7.80443 381.561 13.167 379.221 18.4894 371.947 35.0599 365.022 50.8394 360.047 63.5085 360.733 46.6968 361.19 20.2725 361.056 3.05853V1.71788H315.77L292.764 109.855H322.036L329.391 75.199C332.08 62.7578 334.702 49.0027 336.692 37.6608 336.396 50.9734 336.315 66.1094 336.248 80.8834 336.248 90.3618 336.154 99.733 336.047 108.447V109.788H362.225L362.588 108.957C374.69 81.5537 385.742 54.7675 393.231 36.3603 390.542 47.7559 387.463 61.7657 384.949 73.7243L377.325 109.788H409.945L419.357 65.3989H396.069L432.923 1.62402V1.69106zM439.233 1.62402L429.756 46.0405H454.205L416.148 109.855H450.425L473.51 1.62402H439.233zM526.674 23.9091C535.446 23.9091 539.396 28.2695 539.436 38.0705V39.4039H572V38.0705C572 27.176 568.628 17.9485 562.059 11.4011 554.59 3.94706 543.157 0 528.998 0 509.304 0 493.143 8.0008 482.262 23.0423 473.61 35.0435 468.64 51.0451 468.64 67.14 468.64 95.3162 484.518 111.478 512.206 111.478 539.678 111.478 558.042 98.3698 565.296 73.594L565.82 71.8338H533.095L532.746 72.7006C529.656 80.328 525.398 87.3687 515.282 87.3687 506.55 87.3687 502.305 81.2214 502.305 68.5802 502.278 49.845 510.755 23.9091 526.674 23.9091z" class="colorfff svgShape"></path></svg></g></svg>